<?xml version="1.0" encoding="UTF-8" standalone="no"?>
<svg
   xmlns:dc="http://purl.org/dc/elements/1.1/"
   xmlns:cc="http://creativecommons.org/ns#"
   xmlns:rdf="http://www.w3.org/1999/02/22-rdf-syntax-ns#"
   xmlns:svg="http://www.w3.org/2000/svg"
   xmlns="http://www.w3.org/2000/svg"
   xmlns:sodipodi="http://sodipodi.sourceforge.net/DTD/sodipodi-0.dtd"
   xmlns:inkscape="http://www.inkscape.org/namespaces/inkscape"
   width="24"
   height="24"
   viewBox="0 0 24 24"
   version="1.1"
   id="svg4599"
   sodipodi:docname="hubzilla.svg"
   inkscape:export-filename="/home/workshop/Downloads/_Hubzilla.png"
   inkscape:export-xdpi="2400"
   inkscape:export-ydpi="2400"
   inkscape:version="0.92.5 (2060ec1f9f, 2020-04-08)">
  <metadata
     id="metadata4605">
    <rdf:RDF>
      <cc:Work
         rdf:about="">
        <dc:format>image/svg+xml</dc:format>
        <dc:type
           rdf:resource="http://purl.org/dc/dcmitype/StillImage" />
        <dc:title></dc:title>
      </cc:Work>
    </rdf:RDF>
  </metadata>
  <defs
     id="defs4603" />
  <sodipodi:namedview
     pagecolor="#ffffff"
     bordercolor="#666666"
     borderopacity="1"
     objecttolerance="10"
     gridtolerance="10"
     guidetolerance="10"
     inkscape:pageopacity="0"
     inkscape:pageshadow="2"
     inkscape:window-width="1848"
     inkscape:window-height="1016"
     id="namedview4601"
     showgrid="false"
     inkscape:zoom="9.8333333"
     inkscape:cx="-7.0677967"
     inkscape:cy="12"
     inkscape:window-x="72"
     inkscape:window-y="27"
     inkscape:window-maximized="1"
     inkscape:current-layer="svg4599" />
  <g
     id="g867">
    <path
       style="fill:#43488a;stroke:#000000;stroke-width:0.5;stroke-miterlimit:4;stroke-dasharray:none;stroke-opacity:1"
       id="path4595"
       d="m 6.076,5.518 -5.862,3.468 1.57,0.045 1.568,0.046 0.027,6.256 0.017,6.247 H 20.514 V 9.12 L 22.144,9.103 23.786,9.077 17.916,5.59 C 14.689,3.672 12.019,2.087 11.992,2.078 11.964,2.058 9.302,3.608 6.075,5.518 Z"
       inkscape:connector-curvature="0" />
    <path
       style="fill:#ffffff;stroke:#000000;stroke-width:0.5;stroke-miterlimit:4;stroke-dasharray:none;stroke-opacity:1"
       id="path4597"
       d="m 16.314,7.955 c 0.69,0.34 1.326,0.995 1.66,1.703 0.13,0.316 0.268,0.628 0.24,1.362 -0.024,0.663 -0.07,0.923 -0.277,1.363 -0.546,1.165 -1.622,1.945 -2.85,2.026 l -0.664,0.044 -0.233,0.922 c -0.196,0.768 -0.215,1.027 -0.215,1.027 0.223,0.235 0.726,0.382 0.938,0.926 0.286,0.555 0.253,1.344 -0.114,1.8 -0.6,0.745 -1.497,0.97 -2.285,0.557 -0.718,-0.376 -1.093,-1.31 -0.87,-2.125 0.054,-0.206 -0.01,-0.268 -0.868,-0.833 l -0.933,-0.62 -0.34,0.278 c -1.623,1.3 -3.998,0.154 -3.99,-1.936 0,-1.345 1.068,-2.393 2.44,-2.384 0.688,0 1.1,0.153 1.612,0.62 l 0.376,0.34 0.834,-0.42 0.843,-0.413 -0.09,-0.296 c -0.127,-0.44 -0.1,-1.417 0.052,-1.91 0.17,-0.592 0.7,-1.327 1.2,-1.695 1.023,-0.75 2.422,-0.886 3.532,-0.34 z m -6.158,7.6 1.867,1.284 c 0,0 0.567,-0.48 1.337,-0.547 l 0.478,-2.03 c 0,0 -1.48,-0.48 -1.897,-1.517 l -1.73,0.82 c 0,0.002 0.41,1.025 -0.054,1.988 z"
       inkscape:connector-curvature="0" />
  </g>
</svg>
