<?xml version="1.0" encoding="UTF-8" standalone="no"?>
<!-- Created with Inkscape (http://www.inkscape.org/) -->

<svg
   xmlns:dc="http://purl.org/dc/elements/1.1/"
   xmlns:cc="http://creativecommons.org/ns#"
   xmlns:rdf="http://www.w3.org/1999/02/22-rdf-syntax-ns#"
   xmlns:svg="http://www.w3.org/2000/svg"
   xmlns="http://www.w3.org/2000/svg"
   xmlns:sodipodi="http://sodipodi.sourceforge.net/DTD/sodipodi-0.dtd"
   xmlns:inkscape="http://www.inkscape.org/namespaces/inkscape"
   width="210mm"
   height="297mm"
   viewBox="0 0 210 297"
   version="1.1"
   id="svg3912"
   inkscape:version="0.92.4 (5da689c313, 2019-01-14)"
   sodipodi:docname="koala2.svg">
  <defs
     id="defs3906" />
  <sodipodi:namedview
     id="base"
     pagecolor="#ffffff"
     bordercolor="#666666"
     borderopacity="1.0"
     inkscape:pageopacity="0.0"
     inkscape:pageshadow="2"
     inkscape:zoom="0.35"
     inkscape:cx="400"
     inkscape:cy="560"
     inkscape:document-units="mm"
     inkscape:current-layer="layer1"
     showgrid="false"
     inkscape:window-width="870"
     inkscape:window-height="727"
     inkscape:window-x="95"
     inkscape:window-y="122"
     inkscape:window-maximized="0" />
  <metadata
     id="metadata3909">
    <rdf:RDF>
      <cc:Work
         rdf:about="">
        <dc:format>image/svg+xml</dc:format>
        <dc:type
           rdf:resource="http://purl.org/dc/dcmitype/StillImage" />
        <dc:title></dc:title>
      </cc:Work>
    </rdf:RDF>
  </metadata>
  <g
     inkscape:label="Layer 1"
     inkscape:groupmode="layer"
     id="layer1">
    <g
       transform="translate(-3.702611,-40.89908)"
       id="g3947">
      <path
         inkscape:export-ydpi="90"
         inkscape:export-xdpi="90"
         style="fill:#ff0000;fill-opacity:1;fill-rule:evenodd;stroke:#1a1a1a;stroke-width:2.75200319;stroke-linecap:butt;stroke-linejoin:round;stroke-miterlimit:4;stroke-dasharray:none;stroke-opacity:1"
         d="m 64.367469,92.0328 c -3.860452,0.05063 -7.566739,0.837964 -10.727547,2.450782 -3.905794,2.058801 -7.074798,5.494678 -8.73763,10.739638 0,0 10.288949,-1.41465 18.151103,0.55089 7.862165,1.96554 8.690608,4.74033 8.690608,4.74033 0,0 -6.243671,7.86197 -7.717814,25.55182 -1.313193,15.75815 1.990228,27.00457 11.940844,33.01838 -10.33115,4.21621 -22.373268,21.90825 -25.699624,30.10404 -4.218919,9.12255 -3.197392,15.92803 -2.198179,33.43759 -28.654355,-2.26898 -35.028836,28.75831 -25.199792,42.69655 6.837544,11.9398 14.602899,16.64756 24.479606,16.64758 18.966337,-0.34745 28.491608,-3.2935 39.629042,-13.81386 12.124475,2.20107 20.414654,2.36985 30.609244,0.14511 13.21324,4.56692 14.25092,8.84494 18.18201,10.31908 3.93107,1.47415 7.17917,2.12159 22.32039,2.12159 15.14123,0 27.79925,-10.61933 32.22295,-19.81182 5.26959,-24.13825 -7.85938,-36.97932 -29.19978,-34.85916 4.16954,-14.24591 4.48139,-21.42824 1.53309,-35.187 -2.13569,-7.56258 -16.51766,-30.39863 -24.26597,-31.90316 7.77118,-6.16175 9.70409,-12.0121 11.20587,-23.81182 2.2412,-17.60913 -2.99179,-14.97326 -1.53039,-26.62001 0.89583,-7.1393 14.64915,-12.70684 17.89044,-12.95126 -2.01367,-5.14925 -6.27322,-9.690261 -11.18707,-9.690261 -7.99193,-0.831746 -17.0573,6.523891 -21.65126,7.404751 -4.46339,0.001 -6.80494,-5.777611 -24.98616,-5.777611 -18.181237,0 -18.226545,4.391951 -20.192075,3.900561 C 82.100001,95.373995 72.860459,91.921429 64.367469,92.0328 Z"
         id="path2199-1"
         inkscape:connector-curvature="0"
         sodipodi:nodetypes="sccsccccccccccscccccccccscs" />
      <path
         id="path2201-1"
         style="fill:none;fill-rule:evenodd;stroke:#1a1a1a;stroke-width:2.75174689;stroke-linecap:butt;stroke-linejoin:miter;stroke-miterlimit:4;stroke-dasharray:none;stroke-opacity:1"
         d="m 161.11239,236.07185 c 0,0 -11.80561,0.43177 -20.18173,9.58714 -7.26819,7.94434 -8.20503,13.12868 -13.75876,14.93485 -9.81295,1.67963 -16.29342,-12.3387 -15.91761,-20.03991 0.38962,-7.96648 3.5538,-10.42085 9.45043,-18.52869 5.89659,-8.10784 4.14694,-22.98097 4.14694,-22.98097 m -76.782501,33.58265 c 0,0 14.237825,3.9064 17.923213,9.06595 6.258506,8.76189 8.20503,18.3406 13.75876,20.14678 9.81295,1.67962 21.505368,-15.63959 21.129548,-23.3408 -0.38962,-7.96648 -6.507225,-11.8107 -12.403851,-19.91854 -5.896598,-8.10784 -2.583366,-20.37501 -2.583366,-20.37501"
         inkscape:connector-curvature="0"
         sodipodi:nodetypes="cccccccccccc" />
      <path
         id="path2203-85"
         d="m 165.94644,105.5977 c -3.2413,0.24441 -16.99597,5.8133 -17.89181,12.9526 -1.4614,11.64676 3.77293,9.00953 1.53174,26.61867 -1.09437,8.59871 -2.42642,14.03543 -6.07052,18.73826 0.89352,0.49313 3.99529,1.72494 9.77223,-0.8747 6.94925,-3.12714 16.56066,-14.9249 16.56064,-32.28494 0.43432,-8.49661 -1.09664,-17.9094 -3.90228,-25.14989 z"
         style="fill:#ffffff;fill-opacity:1;fill-rule:evenodd;stroke:#1a1a1a;stroke-width:2.75174689;stroke-linecap:square;stroke-linejoin:miter;stroke-miterlimit:4;stroke-dasharray:none;stroke-opacity:1"
         inkscape:connector-curvature="0"
         sodipodi:nodetypes="ccccscc" />
      <path
         id="path2205-7"
         d="m 53.855386,104.73643 c -4.933816,-0.0654 -8.952609,0.4864 -8.952609,0.4864 0,0 -3.572669,9.59951 -3.992115,19.18493 0.105824,18.64014 12.428841,39.20386 26.411939,35.62578 0.0182,-0.008 0.04056,-0.0413 0.05902,-0.0551 -3.208062,-6.12825 -4.169573,-14.15421 -3.356371,-23.91259 1.474144,-17.68985 7.719155,-25.55182 7.719155,-25.55182 0,0 -0.828438,-2.7748 -8.690598,-4.74033 -2.948313,-0.73708 -6.238225,-0.99801 -9.198499,-1.03729 z"
         style="fill:#ffffff;fill-opacity:1;fill-rule:evenodd;stroke:#1a1a1a;stroke-width:2.75174689;stroke-linecap:butt;stroke-linejoin:miter;stroke-miterlimit:4;stroke-dasharray:none;stroke-opacity:1"
         inkscape:connector-curvature="0"
         sodipodi:nodetypes="cccccccccc" />
      <path
         sodipodi:nodetypes="zzzzz"
         inkscape:connector-curvature="0"
         id="path2209-51"
         d="m 108.23869,131.76107 c 3.31222,-0.49218 12.85607,10.10088 12.85607,18.96647 0,8.86558 -5.11245,15.08477 -12.85607,15.08477 -7.74362,0 -13.405278,-6.6454 -13.466692,-15.08477 -0.06136,-8.43938 10.154472,-18.4743 13.466692,-18.96647 z"
         style="fill:#1a1a1a;fill-rule:evenodd;stroke:none;stroke-width:0.68793797px;stroke-linecap:butt;stroke-linejoin:miter;stroke-opacity:1" />
      <path
         sodipodi:nodetypes="cscsc"
         inkscape:connector-curvature="0"
         id="path2211-6"
         d="m 90.474707,130.97928 c -1.867588,-0.0434 -5.050426,2.60616 -5.08163,5.08162 -0.02678,2.12719 -0.169525,4.70132 2.99686,5.99372 3.083725,0.21716 5.23771,-1.55837 5.906842,-4.21297 1.385686,-5.4973 -3.636556,-7.21022 -3.822072,-6.86237 z"
         style="fill:#1a1a1a;fill-opacity:1;fill-rule:evenodd;stroke:none;stroke-width:0.68793797px;stroke-linecap:butt;stroke-linejoin:miter;stroke-opacity:1" />
      <path
         style="fill:#ffffff;fill-opacity:1;fill-rule:evenodd;stroke:none;stroke-width:0.68793797px;stroke-linecap:butt;stroke-linejoin:miter;stroke-opacity:1"
         d="m 89.855762,132.78321 c -0.696492,0.6829 -0.612218,2.12332 -0.05743,2.92568 0.517206,0.74817 1.782698,1.36706 2.571116,0.9136 0.853662,-0.49095 1.054776,-2.06107 0.544931,-2.90358 -0.551975,-0.91213 -2.579572,-1.3535 -3.058508,-0.9357 0,0 0,-1e-5 0,0 z"
         id="path2213-0"
         inkscape:connector-curvature="0"
         sodipodi:nodetypes="ssssss" />
      <path
         style="fill:#1a1a1a;fill-opacity:1;fill-rule:evenodd;stroke:none;stroke-width:0.68793797px;stroke-linecap:butt;stroke-linejoin:miter;stroke-opacity:1"
         d="m 128.06565,132.94482 c -1.86758,-0.0434 -5.05042,2.60615 -5.08162,5.08162 -0.0268,2.12719 -0.16953,4.70131 2.99685,5.99372 3.08373,0.21716 5.23771,-1.55837 5.90685,-4.21297 1.38568,-5.4973 -3.63656,-7.21023 -3.82208,-6.86237 z"
         id="path2215-9"
         inkscape:connector-curvature="0"
         sodipodi:nodetypes="cscsc" />
      <path
         sodipodi:nodetypes="ssssss"
         inkscape:connector-curvature="0"
         id="path2217-1"
         d="m 127.44671,134.74874 c -0.69649,0.68291 -0.61222,2.12332 -0.0574,2.92568 0.51721,0.74818 1.7827,1.36707 2.57112,0.91361 0.85366,-0.49095 1.05476,-2.06108 0.54493,-2.90358 -0.55197,-0.91213 -2.57957,-1.3535 -3.05851,-0.93571 0,1e-5 0,0 0,0 z"
         style="fill:#ffffff;fill-opacity:1;fill-rule:evenodd;stroke:none;stroke-width:0.68793797px;stroke-linecap:butt;stroke-linejoin:miter;stroke-opacity:1" />
    </g>
  </g>
</svg>
