<?xml version="1.0" encoding="UTF-8" standalone="no"?>
<!-- Created with Inkscape (http://www.inkscape.org/) -->

<svg
   xmlns:dc="http://purl.org/dc/elements/1.1/"
   xmlns:cc="http://creativecommons.org/ns#"
   xmlns:rdf="http://www.w3.org/1999/02/22-rdf-syntax-ns#"
   xmlns:svg="http://www.w3.org/2000/svg"
   xmlns="http://www.w3.org/2000/svg"
   xmlns:sodipodi="http://sodipodi.sourceforge.net/DTD/sodipodi-0.dtd"
   xmlns:inkscape="http://www.inkscape.org/namespaces/inkscape"
   width="210mm"
   height="297mm"
   viewBox="0 0 210 297"
   version="1.1"
   id="svg8"
   sodipodi:docname="KOALA.svg"
   inkscape:version="0.92.2 2405546, 2018-03-11">
  <defs
     id="defs2" />
  <sodipodi:namedview
     id="base"
     pagecolor="#ffffff"
     bordercolor="#666666"
     borderopacity="1.0"
     inkscape:pageopacity="0.0"
     inkscape:pageshadow="2"
     inkscape:zoom="0.35355339"
     inkscape:cx="766.04521"
     inkscape:cy="686.81703"
     inkscape:document-units="mm"
     inkscape:current-layer="layer1"
     showgrid="false"
     showguides="false"
     inkscape:window-width="1366"
     inkscape:window-height="742"
     inkscape:window-x="0"
     inkscape:window-y="0"
     inkscape:window-maximized="1" />
  <metadata
     id="metadata5">
    <rdf:RDF>
      <cc:Work
         rdf:about="">
        <dc:format>image/svg+xml</dc:format>
        <dc:type
           rdf:resource="http://purl.org/dc/dcmitype/StillImage" />
        <dc:title></dc:title>
      </cc:Work>
    </rdf:RDF>
  </metadata>
  <g
     inkscape:label="Calque 1"
     inkscape:groupmode="layer"
     id="layer1">
    <g
       id="g1148"
       transform="matrix(2.7036973,0,0,2.7036973,-136.81912,-122.68756)">
      <path
         id="path881"
         d="m 75.113763,61.534747 c -3.03412,0.07638 -5.74449,1.423296 -7.00785,5.199681 3.4862,-0.711435 6.41587,-0.61853 10.61176,1.878954 -5.26901,8.912136 -4.30075,14.167838 -2.43241,18.896005 -0.0233,-0.0054 -0.046,-0.01204 -0.0692,-0.01757 l 0.0357,0.09095 c 10.21002,9.15634 20.25398,7.827065 30.215207,1.309999 0.23442,-0.388937 0.49148,-0.729332 0.75706,-1.052133 2.56016,-4.169365 1.3393,-10.129795 0.36535,-15.973184 2.41638,-3.455782 5.23682,-4.351542 8.20209,-4.331002 0.68429,0.0047 1.37623,0.05842 2.07274,0.14056 -4.34284,-4.777317 -9.34198,-6.177193 -15.42852,-1.986958 -5.797877,-2.632202 -11.595887,-2.285013 -17.393767,-1.208193 -2.63468,-1.48843 -6.48941,-3.033676 -9.92807,-2.947107 z"
         style="fill:#ff0000;stroke:#000000;stroke-width:1;stroke-linecap:butt;stroke-linejoin:miter;stroke-miterlimit:4;stroke-dasharray:none;stroke-opacity:1"
         inkscape:connector-curvature="0" />
      <g
         id="g1137">
        <path
           style="fill:#000000;stroke:none;stroke-width:0.26458332px;stroke-linecap:butt;stroke-linejoin:miter;stroke-opacity:1"
           d="m 92.924519,76.059917 c -4.869281,2.119753 -6.819648,8.511108 -4.418306,11.990698 1.651639,1.872548 5.957905,2.532525 7.972991,0.357155 3.740376,-4.859546 -0.424613,-10.485659 -3.554685,-12.347853 z"
           id="path889"
           inkscape:connector-curvature="0"
           sodipodi:nodetypes="cccc" />
        <path
           style="opacity:1;fill:none;fill-opacity:1;stroke:none;stroke-width:1.10000002;stroke-miterlimit:4;stroke-dasharray:none;stroke-dashoffset:0;stroke-opacity:1"
           id="path899"
           sodipodi:type="arc"
           sodipodi:cx="80.695259"
           sodipodi:cy="74.708855"
           sodipodi:rx="0.35079125"
           sodipodi:ry="0.8769781"
           sodipodi:start="0"
           sodipodi:end="0.26220779"
           d="m 81.04605,74.708855 a 0.35079125,0.8769781 0 0 1 -0.01199,0.227324 l -0.338801,-0.227324 z" />
        <path
           style="fill:#000000;stroke:#000000;stroke-width:0.26458332px;stroke-linecap:butt;stroke-linejoin:miter;stroke-opacity:1"
           d="m 85.816814,76.61482 c -1.175128,-7.79e-4 -1.577629,0.957805 -1.753959,2.437999 -0.0057,1.070454 0.667915,1.576551 1.385628,1.619486 0.602627,0.08106 1.860203,-0.817669 1.800726,-2.151519 -0.02392,-1.117732 -0.449093,-1.825988 -1.432395,-1.905966 z"
           id="path905"
           inkscape:connector-curvature="0"
           sodipodi:nodetypes="ccccc" />
        <g
           id="g912"
           transform="translate(10.022516,-1.374506)">
          <path
             sodipodi:nodetypes="ccc"
             inkscape:connector-curvature="0"
             id="path909"
             d="m 75.607208,78.644135 c -0.979448,1.232856 1.182524,2.302583 1.403165,0.795132 -0.130628,-0.706686 -0.878936,-1.168475 -1.403165,-0.795132 z"
             style="fill:#ffffff;stroke:#000000;stroke-width:0.26458332px;stroke-linecap:butt;stroke-linejoin:miter;stroke-opacity:1" />
        </g>
        <path
           style="fill:#000000;stroke:#000000;stroke-width:0.26458332px;stroke-linecap:butt;stroke-linejoin:miter;stroke-opacity:1"
           d="m 100.01216,77.456719 c -2.556648,0.508568 -1.595111,3.662997 0,3.882088 0.96428,-0.118798 1.58439,-0.405239 1.92936,-2.034588 -0.079,-1.179217 -0.63472,-1.728104 -1.92936,-1.8475 z"
           id="path914"
           inkscape:connector-curvature="0"
           sodipodi:nodetypes="cccc" />
        <path
           style="fill:#ffffff;stroke:none;stroke-width:0.26458332px;stroke-linecap:butt;stroke-linejoin:miter;stroke-opacity:1"
           d="m 100.66698,78.181688 c 0.66721,-0.0039 0.92611,0.534519 0.88867,1.028985 -0.9054,1.110952 -1.886526,-0.598801 -0.88867,-1.028985 z"
           id="path916"
           inkscape:connector-curvature="0"
           sodipodi:nodetypes="ccc" />
      </g>
    </g>
    <path
       style="fill:#ff0000;stroke:#000000;stroke-width:2.70369744;stroke-linecap:butt;stroke-linejoin:miter;stroke-miterlimit:4;stroke-dasharray:none;stroke-opacity:1"
       d="m 141.18504,123.43587 0.42194,-0.22494 c -20.56625,10.66122 -41.701574,12.37792 -62.659074,-1.61235 -33.207169,17.83975 -37.606325,33.77626 -28.864946,68.22053 0,0 -35.008591,2.02991 -37.5326,21.82673 -4.1227057,31.66487 37.310136,53.25976 78.385293,25.72119 11.497247,2.29728 20.714177,1.35087 30.633737,-0.48409 45.17667,28.2224 82.63448,6.07014 78.51177,-25.59472 -2.52403,-19.79682 -32.17796,-17.40121 -32.17796,-17.40121 8.74137,-34.44427 -0.0736,-57.82525 -26.29614,-70.67601 -0.0536,0.028 0,0 0,0 v 0"
       id="path1152"
       inkscape:connector-curvature="0"
       sodipodi:nodetypes="cccccccccccc" />
    <path
       style="fill:#ffffff;stroke:#000000;stroke-width:2.70369744;stroke-linecap:butt;stroke-linejoin:miter;stroke-miterlimit:4;stroke-dasharray:none;stroke-opacity:1"
       d="m 176.24594,59.910554 c -8.0172,-0.05554 -15.64279,2.366332 -22.17595,11.709717 2.86332,17.179062 6.5266,34.737549 -3.03465,46.031299 25.78567,-7.98218 31.1321,-30.638097 30.81465,-57.360984 -1.88314,-0.222082 -3.75394,-0.367214 -5.60405,-0.380032 z"
       id="path887"
       inkscape:connector-curvature="0" />
    <path
       sodipodi:nodetypes="cccc"
       inkscape:connector-curvature="0"
       id="path944"
       d="m 47.227471,57.940174 c 9.42561,-1.923504 17.346478,-1.67182 28.690895,5.080623 C 61.672555,87.116513 64.291127,101.3262 69.342563,114.10974 46.601551,108.8484 35.511176,76.599296 47.227471,57.940174 Z"
       style="fill:#ffffff;stroke:#000000;stroke-width:2.70369744;stroke-linecap:butt;stroke-linejoin:miter;stroke-miterlimit:4;stroke-dasharray:none;stroke-opacity:1" />
    <path
       style="fill:none;stroke:#000000;stroke-width:2.70369744;stroke-linecap:butt;stroke-linejoin:miter;stroke-miterlimit:4;stroke-dasharray:none;stroke-opacity:1"
       d="m 125.1287,215.46495 c 2.06921,1.26041 3.68488,2.63422 7.56151,3.44275 3.30452,-6.5334 15.69218,-21.58186 35.21299,-25.02069"
       id="path1166"
       inkscape:connector-curvature="0"
       sodipodi:nodetypes="ccc" />
    <path
       style="fill:none;stroke:#000000;stroke-width:2.70369744;stroke-linecap:butt;stroke-linejoin:miter;stroke-miterlimit:4;stroke-dasharray:none;stroke-opacity:1"
       d="m 129.56474,154.56492 v 0 c 2.83608,19.71293 -24.97283,46.20294 -4.43604,60.90003 -3.28464,5.87189 -3.7443,16.47614 -3.55931,21.41799"
       id="path1178"
       inkscape:connector-curvature="0"
       sodipodi:nodetypes="cccc" />
    <path
       style="fill:none;stroke:#000000;stroke-width:2.70369744;stroke-linecap:butt;stroke-linejoin:miter;stroke-miterlimit:4;stroke-dasharray:none;stroke-opacity:1"
       d="m 87.246681,216.30401 c -3.175131,1.40643 -5.591071,1.80156 -9.299593,1.96721 -2.955428,-11.01299 -8.108039,-25.9815 -27.864128,-28.45211"
       id="path1156"
       inkscape:connector-curvature="0"
       sodipodi:nodetypes="ccc" />
    <path
       inkscape:connector-curvature="0"
       style="fill:none;stroke:#000000;stroke-width:2.70369744;stroke-linecap:butt;stroke-linejoin:miter;stroke-miterlimit:4;stroke-dasharray:none;stroke-opacity:1"
       d="m 82.810672,155.40399 v 0 c -2.836094,19.71293 24.972808,46.20294 4.436009,60.90002 3.28467,5.87189 3.87396,16.12118 3.688972,21.06302"
       id="path1178-6"
       sodipodi:nodetypes="cccc" />
  </g>
</svg>
