<?xml version="1.0" encoding="UTF-8" standalone="no"?>
<!-- Created with Inkscape (http://www.inkscape.org/) -->

<svg
   width="600"
   height="600"
   viewBox="0 0 158.75 158.75"
   version="1.1"
   id="svg5"
   inkscape:version="1.1.1 (3bf5ae0d25, 2021-09-20)"
   sodipodi:docname="streams.svg"
   xmlns:inkscape="http://www.inkscape.org/namespaces/inkscape"
   xmlns:sodipodi="http://sodipodi.sourceforge.net/DTD/sodipodi-0.dtd"
   xmlns="http://www.w3.org/2000/svg"
   xmlns:svg="http://www.w3.org/2000/svg">
  <sodipodi:namedview
     id="namedview7"
     pagecolor="#ffffff"
     bordercolor="#666666"
     borderopacity="1.0"
     inkscape:pageshadow="2"
     inkscape:pageopacity="0.0"
     inkscape:pagecheckerboard="false"
     inkscape:document-units="px"
     showgrid="false"
     units="px"
     width="600px"
     inkscape:snap-text-baseline="false"
     inkscape:zoom="0.69664703"
     inkscape:cx="388.28846"
     inkscape:cy="332.30602"
     inkscape:window-width="1852"
     inkscape:window-height="1016"
     inkscape:window-x="0"
     inkscape:window-y="0"
     inkscape:window-maximized="1"
     inkscape:current-layer="layer1" />
  <defs
     id="defs2" />
  <g
     inkscape:label="Layer 1"
     inkscape:groupmode="layer"
     id="layer1">
    <g
       id="g991">
      <path
         style="font-size:299.52px;line-height:1.25;font-family:serif;-inkscape-font-specification:'serif, Normal';fill:#0000ff;stroke-width:0.79375;stroke:#000000;stroke-opacity:1;stroke-miterlimit:4;stroke-dasharray:none"
         d="m 156.26181,95.221867 q -11.10746,-40.512984 -45.89136,-40.512984 -11.107469,0 -23.384138,8.593663 -12.276672,8.286747 -23.968739,16.880411 -11.692068,8.286747 -21.045722,8.286747 -24.553342,0 -33.3223922,-33.453904 L 2.803425,58.084966 q 7.0152401,46.037484 45.01446,46.037484 11.98437,0 24.26104,-8.28675 12.276672,-8.593663 23.384135,-16.88041 11.10746,-8.286747 20.46112,-8.286747 23.09183,0 34.4916,27.315573 z"
         id="path132002" />
      <path
         style="font-size:299.52px;line-height:1.25;font-family:serif;-inkscape-font-specification:'serif, Normal';fill:#0000ff;stroke-width:0.79375;stroke:#000000;stroke-opacity:1;stroke-miterlimit:4;stroke-dasharray:none"
         d="m 156.26181,147.7046 q -11.10746,-40.51299 -45.89136,-40.51299 -11.107469,0 -23.384138,8.59367 -12.276672,8.28674 -23.968739,16.88041 -11.692068,8.28674 -21.045722,8.28674 -24.553342,0 -33.3223922,-33.4539 l -5.8460338,3.06916 q 7.0152401,46.03749 45.01446,46.03749 11.98437,0 24.26104,-8.28675 12.276672,-8.59366 23.384135,-16.88041 11.10746,-8.28675 20.46112,-8.28675 23.09183,0 34.4916,27.31558 z"
         id="path132000" />
      <path
         style="font-size:299.52px;line-height:1.25;font-family:serif;-inkscape-font-specification:'serif, Normal';fill:#0000ff;stroke-width:0.79375;stroke:#000000;stroke-opacity:1;stroke-miterlimit:4;stroke-dasharray:none"
         d="M 156.26181,43.659887 Q 145.15435,3.1469036 110.37045,3.1469036 q -11.107469,0 -23.384138,8.5936634 -12.276672,8.286747 -23.968739,16.88041 -11.692068,8.286746 -21.045722,8.286746 -24.553342,0 -33.3223922,-33.4539028 L 2.803425,6.5229856 q 7.0152401,46.0374824 45.01446,46.0374824 11.98437,0 24.26104,-8.286747 12.276672,-8.593664 23.384135,-16.88041 11.10746,-8.286747 20.46112,-8.286747 23.09183,0 34.4916,27.315572 z"
         id="path131779" />
    </g>
  </g>
</svg>
