<?xml version="1.0" encoding="UTF-8" standalone="no"?>
<svg
   xmlns:dc="http://purl.org/dc/elements/1.1/"
   xmlns:cc="http://creativecommons.org/ns#"
   xmlns:rdf="http://www.w3.org/1999/02/22-rdf-syntax-ns#"
   xmlns:svg="http://www.w3.org/2000/svg"
   xmlns="http://www.w3.org/2000/svg"
   xmlns:sodipodi="http://sodipodi.sourceforge.net/DTD/sodipodi-0.dtd"
   xmlns:inkscape="http://www.inkscape.org/namespaces/inkscape"
   width="600"
   height="600"
   version="1.1"
   id="svg4642"
   sodipodi:docname="z0.svg"
   inkscape:version="0.92.4 (5da689c313, 2019-01-14)">
  <metadata
     id="metadata4648">
    <rdf:RDF>
      <cc:Work
         rdf:about="">
        <dc:format>image/svg+xml</dc:format>
        <dc:type
           rdf:resource="http://purl.org/dc/dcmitype/StillImage" />
        <dc:title></dc:title>
      </cc:Work>
    </rdf:RDF>
  </metadata>
  <defs
     id="defs4646" />
  <sodipodi:namedview
     pagecolor="#ffffff"
     bordercolor="#666666"
     borderopacity="1"
     objecttolerance="10"
     gridtolerance="10"
     guidetolerance="10"
     inkscape:pageopacity="0"
     inkscape:pageshadow="2"
     inkscape:window-width="1850"
     inkscape:window-height="1016"
     id="namedview4644"
     showgrid="false"
     inkscape:zoom="0.49166667"
     inkscape:cx="183.8425"
     inkscape:cy="136.56161"
     inkscape:window-x="70"
     inkscape:window-y="27"
     inkscape:window-maximized="1"
     inkscape:current-layer="svg4642"
     fit-margin-top="0"
     fit-margin-left="0"
     fit-margin-right="0"
     fit-margin-bottom="0" />
  <!-- Created with SVG-edit - https://github.com/SVG-Edit/svgedit-->
  <g
     class="layer"
     id="g4640"
     transform="matrix(2.4077797,0,0,2.1561804,-326.21053,-205.93194)">
    <title
       id="title4636">Layer 1</title>
    <path
       d="m 138.6575,131.01362 v 0 c 0,-17.39069 12.43373,-31.488622 27.77152,-31.488622 h 12.62343 v 0 h 60.59242 113.61077 c 7.36548,0 14.42927,3.317532 19.63746,9.222802 5.20815,5.90527 8.13408,13.91453 8.13408,22.26582 v 78.72158 0 47.23293 0 c 0,17.39069 -12.43373,31.48862 -27.77153,31.48862 H 239.64488 l -79.15653,80.06826 18.5641,-80.06826 h -12.62342 c -15.33779,0 -27.77152,-14.09793 -27.77152,-31.48862 v 0 -47.23293 0 z"
       id="svg_1"
       inkscape:connector-curvature="0"
       style="fill:#ff0000;stroke:#000000;stroke-width:5" />
    <path
       d="m 229.97966,122.40992 33.17892,49.48735 -13.686,5.83557 41.7921,42.40656 -13.686,7.08088 51.66639,71.00023 -87.62137,-54.41193 16.71088,-7.55336 -54.4416,-34.85228 19.50823,-10.76921 -57.48128,-36.56164 64.05973,-31.66216 z"
       id="svg_3"
       stroke-linecap="null"
       stroke-linejoin="null"
       transform="rotate(70,247.582,210.315)"
       inkscape:connector-curvature="0"
       style="fill:#ffffff;stroke:#000000;stroke-width:5;stroke-dasharray:none" />
  </g>
</svg>
