<?xml version="1.0" encoding="UTF-8" standalone="no"?>
<svg
   xmlns:dc="http://purl.org/dc/elements/1.1/"
   xmlns:cc="http://creativecommons.org/ns#"
   xmlns:rdf="http://www.w3.org/1999/02/22-rdf-syntax-ns#"
   xmlns:svg="http://www.w3.org/2000/svg"
   xmlns="http://www.w3.org/2000/svg"
   xmlns:xlink="http://www.w3.org/1999/xlink"
   xmlns:sodipodi="http://sodipodi.sourceforge.net/DTD/sodipodi-0.dtd"
   xmlns:inkscape="http://www.inkscape.org/namespaces/inkscape"
   width="142mm"
   height="142mm"
   viewBox="0 0 142 142"
   version="1.1"
   id="svg8"
   inkscape:version="1.0alpha (e25c9f7d36, 2019-01-13)"
   sodipodi:docname="zap4.svg">
  <defs
     id="defs2">
    <linearGradient
       id="linearGradient873"
       inkscape:collect="always">
      <stop
         id="stop869"
         offset="0"
         style="stop-color:#fefcfc;stop-opacity:1" />
      <stop
         id="stop871"
         offset="1"
         style="stop-color:#ffffff;stop-opacity:0" />
    </linearGradient>
    <linearGradient
       gradientTransform="matrix(0.26458333,0,0,0.26458333,41.766579,47.934887)"
       gradientUnits="userSpaceOnUse"
       y2="520.28491"
       x2="310.21228"
       y1="106.22564"
       x1="120.7344"
       id="linearGradient1584"
       xlink:href="#linearGradient873"
       inkscape:collect="always" />
  </defs>
  <sodipodi:namedview
     id="base"
     pagecolor="#ffffff"
     bordercolor="#666666"
     borderopacity="1.0"
     inkscape:pageopacity="0.0"
     inkscape:pageshadow="2"
     inkscape:zoom="0.70710678"
     inkscape:cx="234.67928"
     inkscape:cy="267.90368"
     inkscape:document-units="mm"
     inkscape:current-layer="layer3"
     inkscape:document-rotation="0"
     showgrid="false"
     lock-margins="true"
     fit-margin-top="10"
     fit-margin-left="10"
     fit-margin-right="10"
     fit-margin-bottom="10"
     inkscape:window-width="1920"
     inkscape:window-height="1016"
     inkscape:window-x="0"
     inkscape:window-y="27"
     inkscape:window-maximized="1"
     inkscape:pagecheckerboard="true" />
  <metadata
     id="metadata5">
    <rdf:RDF>
      <cc:Work
         rdf:about="">
        <dc:format>image/svg+xml</dc:format>
        <dc:type
           rdf:resource="http://purl.org/dc/dcmitype/StillImage" />
        <dc:title></dc:title>
      </cc:Work>
    </rdf:RDF>
  </metadata>
  <g
     inkscape:label="Livello 1"
     inkscape:groupmode="layer"
     id="layer1"
     transform="translate(-41.766579,-47.934887)"
     style="display:none">
    <g
       id="g1628">
      <circle
         style="fill:#ffffff;fill-rule:evenodd;stroke:#ffffff;stroke-width:2.065;stroke-miterlimit:4;stroke-dasharray:none;stroke-opacity:1"
         id="path1574"
         cx="112.76638"
         cy="118.93481"
         r="53.654999" />
      <path
         inkscape:connector-curvature="0"
         id="path909"
         transform="matrix(0.26458333,0,0,0.26458333,41.766579,47.934887)"
         d="M 268.3457,65.554688 A 202.7911,202.7911 0 0 0 203.40039,76.5 L 394.39844,188.59375 249.83789,309.16406 372.31641,442.20117 A 202.7911,202.7911 0 0 0 471.13672,268.3457 202.7911,202.7911 0 0 0 268.3457,65.554688 Z M 170.95898,90.716797 A 202.7911,202.7911 0 0 0 65.554688,268.3457 202.7911,202.7911 0 0 0 268.3457,471.13672 202.7911,202.7911 0 0 0 340.24414,457.88281 L 114.52734,351.90039 244.03125,216.92578 Z"
         style="fill:#ffcc00;fill-opacity:1;fill-rule:evenodd;stroke:#000000;stroke-width:7.80472;stroke-miterlimit:4;stroke-dasharray:none" />
      <path
         style="fill:url(#linearGradient1584);fill-opacity:1;fill-rule:evenodd;stroke:none;stroke-width:2.065;stroke-miterlimit:4;stroke-dasharray:none"
         d="m 107.74023,68.871094 -3.48632,0.544922 42.92968,25.195312 h 0.0215 l 0.11719,0.07227 h 0.0351 l 0.13477,0.0918 0.12695,0.08594 h 0.0254 l 0.10938,0.07422 0.0254,0.01758 0.084,0.05664 h 0.002 l 0.0117,0.0078 0.11133,0.06641 h 0.002 l 0.64063,0.382813 0.64062,0.382812 0.64063,0.382813 0.64062,0.382812 0.64063,0.382813 0.64062,0.382812 -0.57421,0.478516 -0.57227,0.478516 h -0.002 l -0.57032,0.478515 h -0.002 l -0.14648,0.123047 -0.42383,0.355469 -0.14649,0.123047 h -0.002 l -0.42383,0.355469 v -0.002 l -0.14648,0.123047 -0.002,0.002 -0.0195,0.01563 -0.125,0.107421 h -0.002 l -0.27539,0.23047 h -0.002 l -0.0195,0.0176 -0.004,0.002 -0.002,0.002 -0.004,0.004 -0.0117,0.01 -0.0976,0.0977 -0.1543,0.15235 h -0.0469 l -0.0918,0.0781 -0.002,0.002 -0.14648,0.125 -0.14844,0.12696 -0.14844,0.12695 h -0.0195 l -34.83593,29.05859 28.13476,30.55079 1.9375,-1.28907 3.88867,-3.20312 3.56446,-3.57813 3.18359,-3.91797 2.73047,-4.15429 2.39062,-4.54883 1.85157,-4.60156 1.41211,-4.86914 0.90039,-4.87891 0.41796,-5.01562 v -0.004 -0.006 l 0.0273,-1.51563 v -0.006 -0.004 -0.004 -0.004 -0.002 l -0.26758,-5.14257 -0.74023,-4.92774 -1.22461,-4.79687 -0.002,-0.006 -1.76757,-4.841801 -2.16211,-4.472656 -2.63282,-4.291015 -3.0625,-4.03711 -3.38281,-3.630859 -3.84961,-3.382813 -4.03125,-2.884765 -4.4082,-2.523438 -4.57617,-2.054687 -4.78125,-1.582032 -4.83594,-1.08789 -5.05469,-0.611328 -3.50586,-0.123047 z m -23.425777,8.615234 -4.035156,3.064453 -3.615235,3.378907 -3.435546,3.919921 -2.490235,3.490235 v 0.193359 l -0.152343,0.154297 -0.152344,0.154297 -0.002,0.002 v 0.0039 l -0.125,0.126953 -2.447266,4.28125 -2.011719,4.50976 -1.601562,4.83594 -1.083985,4.8418 -0.603515,5.03125 -0.121094,3.41211 0.257812,5.12305 0.740235,4.92773 1.224609,4.79688 0.002,0.006 1.767579,4.83985 1.132812,2.34765 0.431641,-0.44531 0.521484,-0.53711 0.521484,-0.53711 h -0.002 l 0.222656,-0.23047 v -0.008 l 0.154297,-0.15625 0.142579,-0.14258 0.0039,-0.006 0.0098,-0.0176 0.03711,-0.0332 0.0098,-0.008 0.0078,-0.01 0.002,-0.002 0.0098,-0.0117 0.0059,-0.004 0.0039,-0.004 v -0.002 l 0.01563,-0.0176 0.0059,-0.008 0.0059,-0.008 32.539069,-33.91406 -16.373053,-28.279294 z m -13.091797,69.859372 3.0625,4.03711 3.384766,3.63086 3.849609,3.38281 4.03125,2.88477 4.408203,2.52148 4.576172,2.05665 4.783203,1.58203 4.833981,1.08789 5.04688,0.60937 3.51953,0.12695 5.09766,-0.2539 4.55078,-0.69531 -51.376956,-24.1211 h -0.03516 l -0.115234,-0.0605 -0.101563,-0.0547 -0.0039,-0.002 -0.0039,-0.002 h -0.002 l -0.0039,-0.002 -0.0059,-0.004 -0.02344,-0.0117 -0.0039,-0.002 -0.0059,-0.004 -0.0078,-0.004 -0.05273,-0.0215 -0.01563,-0.008 -0.01172,-0.006 -0.0039,-0.002 -0.0039,-0.002 -0.02148,-0.01 -0.05273,-0.0215 -0.01563,-0.006 -0.05273,-0.0195 -0.01563,-0.0156 -0.002,-0.002 h -0.002 l -0.08203,-0.0371 h -0.002 l -0.002,-0.002 -0.0059,-0.002 -0.08789,-0.041 -0.05664,-0.0274 -0.0098,-0.008 -0.351563,-0.16211 -0.0039,-0.002 -0.0039,-0.002 h -0.01953 l -0.109375,-0.0547 -0.101562,-0.0488 -0.0059,-0.004 -0.03906,-0.0176 -0.0039,-0.002 -0.02539,-0.01 -0.01367,-0.006 -0.01367,-0.006 -0.08789,-0.041 -0.03516,-0.0176 -0.01367,-0.01 -0.205078,-0.0937 -0.53125,-0.24414 z"
         id="path1576"
         inkscape:connector-curvature="0" />
    </g>
  </g>
  <g
     style="display:inline"
     inkscape:label="Livello 3"
     id="layer3"
     inkscape:groupmode="layer">
    <circle
       style="opacity:1;fill:#ffcc00;fill-opacity:1;fill-rule:evenodd;stroke:#ffcc00;stroke-width:5;stroke-miterlimit:4;stroke-dasharray:none;stroke-opacity:1;stop-opacity:1"
       id="circle1630"
       cx="70.999802"
       cy="70.999916"
       r="53.654999" />
    <path
       inkscape:connector-curvature="0"
       id="path1632"
       d="M 70.999799,17.344678 A 53.655145,53.655145 0 0 0 53.816353,20.240625 L 104.35125,49.898762 66.102941,81.799657 98.508716,116.99906 A 53.655145,53.655145 0 0 0 124.65492,70.999799 53.655145,53.655145 0 0 0 70.999799,17.344678 Z M 45.232896,24.002152 A 53.655145,53.655145 0 0 0 17.344678,70.999799 53.655145,53.655145 0 0 0 70.999799,124.65492 53.655145,53.655145 0 0 0 90.022928,121.14816 L 30.302025,93.106977 64.566601,57.394945 Z"
       style="opacity:1;fill:#aa0044;fill-opacity:1;fill-rule:evenodd;stroke:#343A40;stroke-width:5;stroke-miterlimit:4;stroke-dasharray:none;stop-opacity:1;stroke-linecap:square;stroke-linejoin:miter" />
  </g>
  <g
     style="display:none"
     inkscape:label="Livello 4"
     id="layer4"
     inkscape:groupmode="layer">
    <path
       sodipodi:nodetypes="cccccccccccccccc"
       inkscape:connector-curvature="0"
       transform="scale(0.26458333)"
       id="circle1648"
       d="m 203.40039,76.5 c -11.20775,3.783674 -22.06295,8.540747 -32.44141,14.216797 L 244.03125,216.92578 114.52734,351.90039 340.24219,457.88281 h 0.002 c 11.13038,-4.27491 21.86205,-9.5231 32.07031,-15.68359 L 249.83789,309.16406 394.39844,188.59375 Z"
       style="opacity:1;fill:#483737;fill-opacity:1;fill-rule:evenodd;stroke:#ffcc00;stroke-width:7.80472;stroke-miterlimit:4;stroke-dasharray:none;stroke-opacity:1;stop-opacity:1" />
  </g>
  <g
     style="display:inline"
     inkscape:groupmode="layer"
     id="layer2"
     inkscape:label="Livello 2" />
</svg>
